<?xml version="1.0" encoding="UTF-8"?>
<svg id="Ebene_3" xmlns="http://www.w3.org/2000/svg" xmlns:xlink="http://www.w3.org/1999/xlink" version="1.1" viewBox="0 0 368.3 225">
  <!-- Generator: Adobe Illustrator 29.8.2, SVG Export Plug-In . SVG Version: 2.1.1 Build 3)  -->
  <defs>
    <style>
      .st0 {
        fill: url(#Unbenannter_Verlauf);
      }

      .st1 {
        fill: url(#Unbenannter_Verlauf_2);
      }

      .st2 {
        fill: #009ee3;
      }

      .st3 {
        fill: #1d71b8;
      }
    </style>
    <linearGradient id="Unbenannter_Verlauf" data-name="Unbenannter Verlauf" x1="157.4" y1="70.4" x2="171.9" y2="55.8" gradientTransform="translate(0 224) scale(1 -1)" gradientUnits="userSpaceOnUse">
      <stop offset="0" stop-color="#0282c2"/>
      <stop offset="1" stop-color="#0283c2"/>
      <stop offset="1" stop-color="#1898d5"/>
    </linearGradient>
    <linearGradient id="Unbenannter_Verlauf_2" data-name="Unbenannter Verlauf 2" x1="42" y1="186" x2="189.9" y2="38.1" gradientTransform="translate(0 224) scale(1 -1)" gradientUnits="userSpaceOnUse">
      <stop offset="0" stop-color="#164389"/>
      <stop offset="1" stop-color="#1a9cd8"/>
    </linearGradient>
  </defs>
  <g>
    <path class="st2" d="M214.5,128.5h11.8v3.7h-7.6v3.8h7.6v3.6h-7.6v3.8h7.6v3.7h-11.8v-18.5h0Z"/>
    <path class="st2" d="M237.4,135.1c.8,0,1.6.2,2.4.5.8.3,1.4.8,1.9,1.6.5.7.7,1.6.7,2.8v7h-4.3v-6.3c0-.8-.2-1.4-.6-1.9s-.9-.6-1.5-.6-.8.1-1.2.3-.7.5-.9.9-.3.9-.3,1.4v6.2h-4.3v-11.5h4.3v1.7c.1-.3.4-.6.7-.9s.8-.6,1.4-.8c.6-.2,1.1-.3,1.8-.3h0Z"/>
    <path class="st2" d="M253.8,147v-1.9c0,.2-.3.5-.6.8s-.8.7-1.4,1c-.6.3-1.2.4-2,.4-1.1,0-2.1-.3-2.9-.8s-1.5-1.3-2-2.2-.7-1.9-.7-3.1.2-2.1.7-3.1,1.1-1.6,2-2.2,1.8-.8,2.9-.8,1.4.1,1.9.3,1,.5,1.3.8c.3.3.6.6.7.9v-1.7h4.2v11.5h-4.2,0ZM250.9,153.1c-.8,0-1.6,0-2.4-.2s-1.5-.4-2.2-.7c-.7-.3-1.3-.8-1.7-1.4l2.5-2.6c.2.2.5.5.8.7s.7.4,1.2.6,1,.2,1.7.2,1.1-.1,1.6-.3.8-.5,1.1-.9c.3-.4.4-.9.4-1.5v-.3h4.2v.5c0,1.3-.3,2.3-1,3.2s-1.5,1.5-2.5,2-2.3.7-3.6.7h0ZM248.4,141.2c0,.5.1,1,.4,1.4s.6.7,1,1c.4.2.9.4,1.4.4s1-.1,1.4-.4c.4-.2.7-.6.9-1,.2-.4.3-.9.3-1.4s-.1-1-.3-1.4-.5-.7-.9-1c-.4-.2-.8-.4-1.4-.4s-.9.1-1.4.4c-.4.2-.7.6-1,1s-.4.9-.4,1.4Z"/>
    <path class="st2" d="M263,133.1c-.7,0-1.2-.2-1.7-.7s-.7-1-.7-1.7.2-1.2.7-1.7,1-.7,1.7-.7.8.1,1.2.3c.4.2.7.5.9.9.2.4.3.8.3,1.2,0,.6-.2,1.2-.7,1.7-.5.5-1,.7-1.7.7h0ZM260.8,147v-11.5h4.3v11.5h-4.3Z"/>
    <path class="st2" d="M275.9,135.1c.8,0,1.6.2,2.4.5s1.4.8,1.9,1.6c.5.7.7,1.6.7,2.8v7h-4.3v-6.3c0-.8-.2-1.4-.6-1.9s-.9-.6-1.5-.6-.8.1-1.2.3-.7.5-.9.9-.3.9-.3,1.4v6.2h-4.3v-11.5h4.3v1.7c.1-.3.4-.6.7-.9s.8-.6,1.4-.8c.5-.2,1.1-.3,1.8-.3h0Z"/>
    <path class="st2" d="M286.8,142.1c0,.4.2.8.4,1.1s.6.6,1,.8.9.3,1.5.3,1,0,1.5-.2.8-.2,1.1-.4.6-.3.8-.5l1.6,2.6c-.2.2-.6.5-1,.7-.4.2-1,.4-1.7.6-.7.1-1.6.2-2.6.2s-2.4-.2-3.4-.7-1.8-1.2-2.3-2.1c-.6-.9-.9-2.1-.9-3.4s.2-2.1.7-3,1.2-1.6,2.1-2.1,2.1-.8,3.4-.8,2.3.2,3.2.7c.9.5,1.6,1.1,2.1,2s.8,2,.8,3.4v.4c0,.2,0,.4,0,.4h-8.3,0ZM291.1,139.9c0-.3,0-.6-.2-.9s-.4-.5-.7-.7-.7-.3-1.1-.3-.9,0-1.2.3c-.3.2-.6.4-.7.7s-.3.6-.3.9h4.3,0Z"/>
    <path class="st2" d="M300.7,142.1c0,.4.2.8.4,1.1s.6.6,1,.8.9.3,1.5.3,1,0,1.5-.2.8-.2,1.1-.4.6-.3.8-.5l1.6,2.6c-.2.2-.6.5-1,.7-.4.2-1,.4-1.7.6-.7.1-1.6.2-2.6.2s-2.4-.2-3.4-.7-1.8-1.2-2.3-2.1c-.6-.9-.9-2.1-.9-3.4s.2-2.1.7-3,1.2-1.6,2.1-2.1,2.1-.8,3.4-.8,2.3.2,3.2.7c.9.5,1.6,1.1,2.1,2s.8,2,.8,3.4v.4c0,.2,0,.4,0,.4h-8.3,0ZM305.1,139.9c0-.3,0-.6-.2-.9s-.4-.5-.7-.7-.7-.3-1.1-.3-.9,0-1.2.3c-.3.2-.6.4-.7.7s-.3.6-.3.9h4.3,0Z"/>
    <path class="st2" d="M315.2,147h-4.3v-11.5h4.3v1.8h0c0-.2.3-.5.5-.8.3-.3.7-.6,1.2-.9.5-.3,1.2-.4,1.9-.4s1,0,1.5.2c.5.2.8.3,1,.5l-1.6,3.5c-.1-.2-.4-.3-.7-.5-.3-.2-.7-.3-1.2-.3s-1,.1-1.4.4-.6.6-.8,1.1c-.2.4-.3.8-.3,1.2v5.8h0Z"/>
    <path class="st2" d="M324.7,133.1c-.7,0-1.2-.2-1.7-.7s-.7-1-.7-1.7.2-1.2.7-1.7,1-.7,1.7-.7.8.1,1.2.3c.4.2.7.5.9.9.2.4.3.8.3,1.2,0,.6-.2,1.2-.7,1.7-.5.5-1,.7-1.7.7h0ZM322.5,147v-11.5h4.3v11.5h-4.3Z"/>
    <path class="st2" d="M337.6,135.1c.8,0,1.6.2,2.4.5s1.4.8,1.9,1.6c.5.7.7,1.6.7,2.8v7h-4.3v-6.3c0-.8-.2-1.4-.6-1.9s-.9-.6-1.5-.6-.8.1-1.2.3-.7.5-.9.9-.3.9-.3,1.4v6.2h-4.3v-11.5h4.3v1.7c.1-.3.4-.6.7-.9s.8-.6,1.4-.8c.5-.2,1.1-.3,1.8-.3h0Z"/>
    <path class="st2" d="M354,147v-1.9c0,.2-.3.5-.6.8s-.8.7-1.4,1c-.6.3-1.2.4-2,.4-1.1,0-2.1-.3-2.9-.8s-1.5-1.3-2-2.2-.7-1.9-.7-3.1.2-2.1.7-3.1,1.1-1.6,2-2.2,1.8-.8,2.9-.8,1.4.1,1.9.3,1,.5,1.3.8.6.6.7.9v-1.7h4.2v11.5h-4.2ZM351.1,153.1c-.8,0-1.6,0-2.4-.2s-1.5-.4-2.2-.7c-.7-.3-1.3-.8-1.7-1.4l2.5-2.6c.2.2.5.5.8.7s.7.4,1.2.6,1,.2,1.7.2,1.1-.1,1.6-.3.8-.5,1.1-.9.4-.9.4-1.5v-.3h4.2v.5c0,1.3-.3,2.3-1,3.2s-1.5,1.5-2.5,2-2.3.7-3.6.7h0ZM348.6,141.2c0,.5.1,1,.4,1.4s.6.7,1,1c.4.2.9.4,1.4.4s1-.1,1.4-.4c.4-.2.7-.6.9-1,.2-.4.3-.9.3-1.4s-.1-1-.3-1.4-.5-.7-.9-1c-.4-.2-.8-.4-1.4-.4s-1,.1-1.4.4c-.4.2-.7.6-1,1s-.4.9-.4,1.4Z"/>
    <path class="st2" d="M209.4,173.2c.9,0,1.6-.1,2.3-.4.7-.2,1.2-.5,1.6-.7l1.8,3.6c-.4.4-1.2.8-2.2,1.1s-2.3.6-3.8.6-2.6-.2-3.8-.7c-1.2-.5-2.2-1.1-3.2-2s-1.6-1.9-2.1-3c-.5-1.2-.8-2.4-.8-3.8s.3-2.6.8-3.8c.5-1.2,1.2-2.2,2.1-3.1s2-1.5,3.2-2,2.5-.7,3.8-.7,2.7.2,3.8.6,1.8.8,2.2,1.1l-1.8,3.6c-.4-.2-.9-.5-1.6-.8s-1.5-.4-2.3-.4-1.8.1-2.5.4c-.7.3-1.3.7-1.8,1.2-.5.5-.8,1.1-1.1,1.7-.2.6-.4,1.3-.4,2s.1,1.4.4,2.1c.2.6.6,1.2,1.1,1.7.5.5,1.1.9,1.8,1.2s1.5.4,2.5.4h0Z"/>
    <path class="st2" d="M226.6,177v-1.9c0,.2-.3.5-.6.8s-.8.7-1.4,1c-.6.3-1.2.4-2,.4-1.1,0-2.1-.3-2.9-.8s-1.5-1.3-2-2.2-.7-1.9-.7-3.1.2-2.1.7-3.1,1.1-1.6,2-2.2,1.8-.8,2.9-.8,1.4.1,1.9.3,1,.5,1.3.8c.3.3.6.6.7.9v-1.7h4.2v11.5h-4.2,0ZM221.3,171.2c0,.5.1,1,.4,1.4s.6.7,1,1c.4.2.9.4,1.4.4s1-.1,1.4-.4c.4-.2.7-.6.9-1,.2-.4.3-.9.3-1.4s-.1-1-.3-1.4-.5-.7-.9-1c-.4-.2-.8-.4-1.4-.4s-.9.1-1.4.4c-.4.2-.7.6-1,1s-.4.9-.4,1.4Z"/>
    <path class="st2" d="M249.3,165.1c.9,0,1.6.2,2.3.5.7.4,1.2.9,1.6,1.7s.6,1.7.6,2.9v6.8h-4.2v-6.1c0-.8-.1-1.4-.4-1.9s-.7-.7-1.4-.7-.8.1-1.1.3c-.3.2-.6.5-.8.9s-.3.9-.3,1.4v6.1h-3.9v-6.1c0-.8-.1-1.4-.4-1.9-.3-.5-.7-.7-1.4-.7s-.8.1-1.1.3c-.3.2-.6.5-.8.9s-.3.9-.3,1.4v6.1h-4.2v-11.5h4.2v1.6c.1-.3.4-.6.7-.9.4-.3.9-.6,1.4-.8s1.1-.3,1.8-.3,1.2.1,1.7.3.8.5,1.1.8.5.7.7,1.1c.1-.3.4-.7.8-1,.4-.3.9-.6,1.5-.9.6-.2,1.2-.3,1.9-.3h0Z"/>
    <path class="st2" d="M260.4,182.8h-4.2v-17.3h4.3v1.7c.1-.3.4-.6.8-.9s.8-.6,1.4-.8,1.2-.3,2-.3c1.1,0,2.1.3,2.9.8.8.6,1.4,1.3,1.8,2.2.4.9.6,1.9.6,3.1s-.2,2.1-.7,3.1-1.1,1.6-1.9,2.2c-.8.6-1.8.8-2.9.8s-1.5-.1-2-.4-1-.6-1.3-.9c-.3-.4-.5-.6-.6-.8v7.7h0ZM265.8,171.2c0-.5-.1-1-.4-1.4s-.5-.7-1-1-.8-.4-1.3-.4-1,.1-1.4.4-.7.6-1,1c-.2.4-.4.9-.4,1.4s.1,1,.4,1.4.5.7,1,1,.9.4,1.4.4.9-.1,1.3-.4c.4-.2.7-.6,1-1s.4-.9.4-1.4Z"/>
  </g>
  <path class="st1" d="M66.9,156.3c-.3-5.6-4.4-9.4-10.2-9.4s-9.9,4.2-10.6,9.4h20.8,0Z"/>
  <g>
    <path class="st1" d="m 154.24 161.06 c 0 5.83 4.61 10.08 10.37 10.08 v 0 c 5.76 0 10.37 -4.46 10.37 -10.3 v 0 c 0 -5.84 -4.54 -10.15 -10.37 -10.15 v 0 c -6.34 0 -10.37 5.33 -10.37 10.37"/>
    <path class="st1" d="M 64.63 17.08 L 12.04 140.99 c -3.66 8.61 0.4 18.65 9.01 22.3 v 0 L 46.19 173.96 c -4.5 -3.3 -7.29 -8.64 -7.29 -15.07 v 0 c 0 -10.15 7.27 -18.43 17.86 -18.43 v 0 c 10.59 0 17.28 7.7 17.28 17.57 v 0 v 2.88 H 45.81 c 0.79 6.05 5.4 10.3 11.74 10.3 v 0 c 4.32 0 8.21 -1.87 10.3 -5.76 v 0 l 5.47 2.81 c -3.1 6.05 -8.78 9.29 -15.7 9.29 v 0 c -1.3 0 -2.57 -0.12 -3.78 -0.34 v 0 L 144.96 215.89 c 8.61 3.66 18.65 -0.4 22.3 -9.01 v 0 l 52.59 -123.91 c 3.66 -8.61 -0.4 -18.65 -9.01 -22.3 v 0 l -123.91 -52.6 c -2.151 -0.914 -4.392 -1.347 -6.6 -1.347 v 0 c -6.629 0 -12.962 3.898 -15.7 10.357 M 112.35 138.71 c 3.17 -6.55 9.15 -11.09 16.99 -11.09 v 0 c 8.93 0 15.27 6.12 15.27 13.75 v 0 c 0 5.83 -2.59 10.3 -7.13 14.33 v 0 L 123.22 168.37 c -0.58 0.58 -0.86 0.79 -0.86 1.22 v 0 c 0 0.22 0.14 0.36 0.36 0.36 v 0 h 23.19 v 6.77 l -0.02 0.03 H 120.4 c -4.39 0 -6.62 -2.52 -6.62 -5.62 v 0 c 0 -2.23 1.01 -4.25 3.1 -6.05 v 0 l 14.33 -12.75 c 3.96 -3.6 6.05 -6.26 6.05 -10.3 v 0 c 0 -4.32 -3.67 -7.42 -8.42 -7.42 v 0 c -4.75 0 -8.64 2.88 -10.8 7.27 v 0 z m 52.33 38.98 c -10.3 0 -17.43 -7.34 -17.43 -16.49 v 0 c 0 -4.54 1.73 -8.42 4.39 -13.18 v 0 l 11.09 -19.51 h 8.28 l -9.36 16.42 c 1.22 -0.29 2.52 -0.43 3.74 -0.43 v 0 c 9.29 0 16.71 6.41 16.71 15.99 v 0 c 0 9.58 -7.42 17.21 -17.43 17.21 v 0 z M 76.69 159.04 c 0 -10.23 8.28 -18.5 18.43 -18.43 v 0 c 6.48 0 12.46 2.95 15.7 9.29 v 0 l -5.9 3.31 c -2.09 -3.82 -5.62 -5.83 -9.79 -5.83 v 0 c -6.19 0 -11.31 5.26 -11.31 11.67 v 0 c 0 6.41 5.11 11.81 11.31 11.81 v 0 v -0.01 c 4.18 0 7.7 -2.02 9.79 -5.83 v 0 l 5.9 3.24 c -3.24 6.41 -9.22 9.29 -15.7 9.29 v 0 c -0.082 0.001 -0.166 0.002 -0.248 0.002 v 0 C 84.834 177.553 76.69 169.187 76.69 159.04"/>
  </g>
</svg>